<svg id="Layer_1" data-name="Layer 1" xmlns="http://www.w3.org/2000/svg" viewBox="0 0 255.35 48.84"><defs><style>.cls-1{fill:#282561;}</style></defs><title>WOI - Footer Logo</title><polygon class="cls-1" points="30.97 20.47 27.09 4.19 19.96 4.19 15.87 19.64 14.51 1.43 3.65 1.49 2.18 2.94 4.07 46.33 20.12 47.42 23.94 32.02 26.36 43.67 26.36 44.35 27.25 45.6 28.19 46.01 40.62 46.17 40.99 35.4 42.88 35.14 43.45 1.96 34.12 2.16 30.97 20.47"/><path class="cls-1" d="M70.88,15.58,70.67,3.05,46,3.25l-.32,13.37-.89-.83s0,.42,0,12.54,1.21,18.41,1.21,18.41l23.81-.05V37.17l-13-.21.1-10.71,11.59-.11,1.11-1.51.36-6.24H58V15.53Z"/><polygon class="cls-1" points="150.97 20.41 146.83 3.96 139.78 4.2 135.76 19.64 134.51 1.56 123.15 1.56 121.49 2.91 123.86 46.72 139.78 47.42 143.81 29.63 145.76 44.43 147.3 46.07 160.5 46.37 160.74 35.27 162.34 34.8 163.35 2.03 153.58 1.97 150.97 20.41"/><path class="cls-1" d="M185.48,1.65l1.43,22.83-9.37-21L166.29,3l-.45,17.17-1.35-2.6-.22,28.56,1.8,1,11.32.15-.15-12.79,5.32,12,11.4-.08c3-11.45,1.5-44.32,1.5-44.32Z"/><path class="cls-1" d="M223.49,2.91,212.4,4.18l-.68,8.92-.52,1s1.5,28,.67,31.46l11.77.67s2.25-29.16,1.13-36.07S223.49,2.91,223.49,2.91Z"/><polygon class="cls-1" points="253.18 11.84 252.21 2.76 227.39 3.88 227.47 13.84 232.72 14.21 233.09 46.19 244.64 46.12 243.74 13.4 253.18 11.84"/><path class="cls-1" d="M120,7.55c0-5.29-9.77-4.64-13.38-4.64S94,3.44,94,3.44L91.12,7.9s-.48,12.63-.48,18.79S90,41.78,92.66,45,111,46.19,116,46.19,119.53,29,119.53,29l.77-.59S120,12.83,120,7.55ZM107.23,39.82l-3.1.75-4.56-.25L99.51,17l.76-1.63,7,.12,1.08.76Z"/></svg>
